<svg xmlns="http://www.w3.org/2000/svg" viewBox="0 0 196 40" width="196" height="40" role="img" aria-label="NextGen Order AI">
  <defs>
    <linearGradient id="ng" x1="0" y1="0" x2="1" y2="1">
      <stop offset="0" stop-color="#5e64ff"/>
      <stop offset="1" stop-color="#00b8a9"/>
    </linearGradient>
    <style>
      .wm { fill: #1f2937; }
      @media (prefers-color-scheme: dark) { .wm { fill: #f3f4f6; } }
    </style>
  </defs>
  <!-- Icon badge -->
  <rect x="0" y="2" width="36" height="36" rx="10" fill="url(#ng)"/>
  <!-- Chat bubble -->
  <path d="M11.5 10.5h13a3 3 0 0 1 3 3v6.5a3 3 0 0 1-3 3h-7.6l-4.9 3.4V23H11.5a3 3 0 0 1-3-3V13.5a3 3 0 0 1 3-3z" fill="#ffffff"/>
  <!-- AI spark -->
  <path d="M18 13.2l1.15 2.9 2.9 1.15-2.9 1.15L18 21.3l-1.15-2.9-2.9-1.15 2.9-1.15z" fill="#ff8a3d"/>
  <!-- Wordmark -->
  <text x="46" y="21" class="wm" font-family="Inter, system-ui, -apple-system, Segoe UI, sans-serif" font-size="17" font-weight="700">NextGen</text>
  <text x="46" y="32" font-family="Inter, system-ui, -apple-system, Segoe UI, sans-serif" font-size="8.5" font-weight="600" letter-spacing="1.5" fill="#00a396">ORDER&#160;AI</text>
</svg>
